<svg width="34" height="34" viewBox="0 0 34 34" fill="none" xmlns="http://www.w3.org/2000/svg">
<path d="M3.12501 33.667C2.37501 33.667 1.72234 33.389 1.16701 32.833C0.611008 32.2777 0.333008 31.625 0.333008 30.875V11.458C0.333008 10.708 0.611008 10.0553 1.16701 9.50001C1.72234 8.94467 2.37501 8.66701 3.12501 8.66701H12.458V3.12501C12.458 2.37501 12.736 1.72234 13.292 1.16701C13.8473 0.611008 14.5 0.333008 15.25 0.333008H18.792C19.542 0.333008 20.1877 0.611008 20.729 1.16701C21.271 1.72234 21.542 2.37501 21.542 3.12501V8.66701H30.875C31.625 8.66701 32.2777 8.94467 32.833 9.50001C33.389 10.0553 33.667 10.708 33.667 11.458V30.875C33.667 31.625 33.389 32.2777 32.833 32.833C32.2777 33.389 31.625 33.667 30.875 33.667H3.12501ZM3.12501 30.875H30.875V11.458H21.542C21.542 12.264 21.264 12.924 20.708 13.438C20.1527 13.9513 19.4583 14.208 18.625 14.208H15.375C14.5697 14.208 13.882 13.9513 13.312 13.438C12.7427 12.924 12.458 12.264 12.458 11.458H3.12501V30.875ZM6.79201 26.792H16.75V26.167C16.75 25.667 16.625 25.2223 16.375 24.833C16.125 24.4443 15.7917 24.1667 15.375 24C14.597 23.722 13.9443 23.5277 13.417 23.417C12.889 23.3057 12.361 23.25 11.833 23.25C11.2777 23.25 10.7013 23.3127 10.104 23.438C9.50667 23.5627 8.87467 23.75 8.20801 24C7.76401 24.1667 7.41701 24.4443 7.16701 24.833C6.91701 25.2223 6.79201 25.667 6.79201 26.167V26.792ZM20.542 24.125H27.5V21.875H20.542V24.125ZM11.833 21.875C12.4723 21.875 13.021 21.6527 13.479 21.208C13.9377 20.764 14.167 20.2087 14.167 19.542C14.167 18.9027 13.9377 18.354 13.479 17.896C13.021 17.4373 12.4723 17.208 11.833 17.208C11.1943 17.208 10.646 17.4373 10.188 17.896C9.72934 18.354 9.50001 18.9027 9.50001 19.542C9.50001 20.2087 9.72934 20.764 10.188 21.208C10.646 21.6527 11.1943 21.875 11.833 21.875ZM20.542 19.292H27.5V17.083H20.542V19.292ZM15.25 11.458H18.792V3.12501H15.25V11.458Z" fill="black"/>
</svg>
