<svg width="28" height="34" viewBox="0 0 28 34" fill="none" xmlns="http://www.w3.org/2000/svg">
<path d="M3.45799 33.667C2.70799 33.667 2.05533 33.389 1.49999 32.833C0.944659 32.2777 0.666992 31.625 0.666992 30.875V9.79201C0.666992 9.04201 0.944659 8.38901 1.49999 7.83301C2.05533 7.27767 2.70799 7.00001 3.45799 7.00001H7.62499V6.70801C7.62499 4.93067 8.24299 3.42401 9.47899 2.18801C10.715 0.951341 12.222 0.333008 14 0.333008C15.778 0.333008 17.285 0.951341 18.521 2.18801C19.757 3.42401 20.375 4.93067 20.375 6.70801V7.00001H24.542C25.292 7.00001 25.9447 7.27767 26.5 7.83301C27.0553 8.38901 27.333 9.04201 27.333 9.79201V30.875C27.333 31.625 27.0553 32.2777 26.5 32.833C25.9447 33.389 25.292 33.667 24.542 33.667H3.45799ZM3.45799 30.875H24.542V9.79201H20.375V13.375C20.375 13.7637 20.243 14.097 19.979 14.375C19.715 14.653 19.3887 14.792 19 14.792C18.6113 14.792 18.285 14.653 18.021 14.375C17.757 14.097 17.625 13.7637 17.625 13.375V9.79201H10.375V13.375C10.375 13.7637 10.243 14.097 9.97899 14.375C9.71499 14.653 9.38866 14.792 8.99999 14.792C8.61133 14.792 8.28499 14.653 8.02099 14.375C7.75699 14.097 7.62499 13.7637 7.62499 13.375V9.79201H3.45799V30.875ZM10.375 7.00001H17.625V6.70801C17.625 5.70801 17.2707 4.86101 16.562 4.16701C15.854 3.47234 15 3.12501 14 3.12501C13 3.12501 12.146 3.47234 11.438 4.16701C10.7293 4.86101 10.375 5.70801 10.375 6.70801V7.00001ZM3.45799 30.875V9.79201V30.875Z" fill="black"/>
</svg>
