<svg width="38" height="36" viewBox="0 0 38 36" fill="none" xmlns="http://www.w3.org/2000/svg">
<path d="M2.91699 26.833L0.666992 25.208L8.66699 12.417L13.667 18.25L20.292 7.45801L24.833 14.25C24.333 14.278 23.847 14.3543 23.375 14.479C22.903 14.6043 22.4447 14.764 22 14.958L20.417 12.583L14.083 22.917L9.04199 17.042L2.91699 26.833ZM35.333 35.333L29.875 29.875C29.3197 30.2917 28.7017 30.604 28.021 30.812C27.3403 31.0207 26.639 31.125 25.917 31.125C23.889 31.125 22.1737 30.4237 20.771 29.021C19.3683 27.6183 18.667 25.917 18.667 23.917C18.667 21.889 19.3683 20.1737 20.771 18.771C22.1737 17.3683 23.889 16.667 25.917 16.667C27.917 16.667 29.6183 17.3683 31.021 18.771C32.4237 20.1737 33.125 21.889 33.125 23.917C33.125 24.639 33.014 25.3403 32.792 26.021C32.5693 26.7017 32.2637 27.3473 31.875 27.958L37.333 33.333L35.333 35.333ZM25.917 28.333C27.139 28.333 28.1807 27.9093 29.042 27.062C29.9027 26.2153 30.333 25.167 30.333 23.917C30.333 22.667 29.9093 21.6113 29.062 20.75C28.2153 19.8887 27.167 19.458 25.917 19.458C24.667 19.458 23.6113 19.8887 22.75 20.75C21.8887 21.6113 21.458 22.667 21.458 23.917C21.458 25.139 21.8887 26.1807 22.75 27.042C23.6113 27.9027 24.667 28.333 25.917 28.333ZM29.208 14.792C28.736 14.5973 28.257 14.4583 27.771 14.375C27.285 14.2917 26.792 14.236 26.292 14.208L35.083 0.333008L37.333 2.00001L29.208 14.792Z" fill="black"/>
</svg>
