<svg width="32" height="30" viewBox="0 0 32 30" fill="none" xmlns="http://www.w3.org/2000/svg">
<path d="M22 17.625C22.6947 17.625 23.3057 17.361 23.833 16.833C24.361 16.3057 24.625 15.6947 24.625 15C24.625 14.278 24.361 13.66 23.833 13.146C23.3057 12.632 22.6947 12.375 22 12.375C21.3053 12.375 20.6943 12.632 20.167 13.146C19.639 13.66 19.375 14.278 19.375 15C19.375 15.6947 19.639 16.3057 20.167 16.833C20.6943 17.361 21.3053 17.625 22 17.625ZM2.792 25.75V27.208V2.792V25.75ZM2.792 30C2.042 30 1.389 29.7223 0.833 29.167C0.277667 28.611 0 27.958 0 27.208V2.792C0 2.042 0.277667 1.389 0.833 0.833C1.389 0.277667 2.042 0 2.792 0H27.208C27.958 0 28.611 0.277667 29.167 0.833C29.7223 1.389 30 2.042 30 2.792V7.875H27.208V2.792H2.792V27.208H27.208V22.125H30V27.208C30 27.958 29.7223 28.611 29.167 29.167C28.611 29.7223 27.958 30 27.208 30H2.792ZM17.167 22.958C16.2223 22.958 15.4583 22.6663 14.875 22.083C14.2917 21.4997 14 20.7497 14 19.833V10.208C14 9.264 14.2917 8.50033 14.875 7.917C15.4583 7.33367 16.2223 7.042 17.167 7.042H28.542C29.486 7.042 30.2497 7.33367 30.833 7.917C31.4163 8.50033 31.708 9.264 31.708 10.208V19.833C31.708 20.7497 31.4163 21.4997 30.833 22.083C30.2497 22.6663 29.486 22.958 28.542 22.958H17.167ZM28.958 20.208V9.833H16.792V20.208H28.958Z" fill="black"/>
</svg>
