<svg width="34" height="34" viewBox="0 0 34 34" fill="none" xmlns="http://www.w3.org/2000/svg">
<path d="M20.458 32.875C19.9027 33.403 19.2293 33.667 18.438 33.667C17.646 33.667 16.986 33.403 16.458 32.875L1.12501 17.542C0.847008 17.264 0.645674 16.9513 0.521008 16.604C0.395674 16.2567 0.333008 15.9027 0.333008 15.542V3.12501C0.333008 2.31967 0.597008 1.65301 1.12501 1.12501C1.65301 0.597008 2.31967 0.333008 3.12501 0.333008H15.542C15.9027 0.333008 16.2637 0.395674 16.625 0.521008C16.9863 0.645674 17.3197 0.847008 17.625 1.12501L32.875 16.417C33.4303 16.9723 33.708 17.639 33.708 18.417C33.708 19.1943 33.4303 19.8747 32.875 20.458L20.458 32.875ZM18.5 30.958L30.917 18.542L15.542 3.12501H3.12501V15.542L18.5 30.958ZM7.41701 9.66701C8.02767 9.66701 8.56234 9.44467 9.02101 9.00001C9.47901 8.55534 9.70801 8.01367 9.70801 7.37501C9.70801 6.76367 9.47901 6.23601 9.02101 5.79201C8.56234 5.34734 8.02767 5.12501 7.41701 5.12501C6.80567 5.12501 6.27067 5.34734 5.81201 5.79201C5.35401 6.23601 5.12501 6.76367 5.12501 7.37501C5.12501 8.01367 5.35401 8.55534 5.81201 9.00001C6.27067 9.44467 6.80567 9.66701 7.41701 9.66701Z" fill="black"/>
</svg>
