<svg width="40" height="40" viewBox="0 0 40 40" fill="none" xmlns="http://www.w3.org/2000/svg">
<path fill-rule="evenodd" clip-rule="evenodd" d="M19.2832 13.4415C19.4226 13.4412 19.5725 13.4413 19.7343 13.4414L20.0009 13.4415C22.137 13.4415 22.3902 13.4491 23.2338 13.4875C24.0138 13.5231 24.4372 13.6535 24.7192 13.763C25.0925 13.908 25.3587 14.0813 25.6386 14.3613C25.9186 14.6413 26.0919 14.908 26.2372 15.2814C26.3468 15.5631 26.4773 15.9864 26.5128 16.7665C26.5511 17.6098 26.5594 17.8632 26.5594 19.9983C26.5594 22.1334 26.5511 22.3867 26.5128 23.2301C26.4771 24.0102 26.3468 24.4335 26.2372 24.7152C26.0922 25.0886 25.9186 25.3544 25.6386 25.6342C25.3585 25.9143 25.0927 26.0876 24.7192 26.2326C24.4375 26.3426 24.0138 26.4726 23.2338 26.5083C22.3904 26.5466 22.137 26.555 20.0009 26.555C17.8647 26.555 17.6115 26.5466 16.7681 26.5083C15.9881 26.4723 15.5647 26.3419 15.2825 26.2324C14.9092 26.0874 14.6425 25.9141 14.3625 25.6341C14.0825 25.3541 13.9091 25.0881 13.7638 24.7145C13.6543 24.4328 13.5238 24.0095 13.4883 23.2295C13.4499 22.3861 13.4423 22.1327 13.4423 19.9963C13.4423 17.8598 13.4499 17.6078 13.4883 16.7645C13.5239 15.9844 13.6543 15.5611 13.7638 15.279C13.9088 14.9057 14.0825 14.639 14.3625 14.359C14.6425 14.079 14.9092 13.9056 15.2825 13.7603C15.5645 13.6503 15.9881 13.5203 16.7681 13.4845C17.5061 13.4511 17.7922 13.4411 19.2832 13.4395V13.4415ZM24.2714 14.7699C23.7413 14.7699 23.3113 15.1994 23.3113 15.7296C23.3113 16.2597 23.7413 16.6897 24.2714 16.6897C24.8014 16.6897 25.2314 16.2597 25.2314 15.7296C25.2314 15.1996 24.8014 14.7696 24.2714 14.7696V14.7699ZM15.8923 20.0002C15.8923 17.7314 17.7318 15.8918 20.0007 15.8917C22.2696 15.8917 24.1087 17.7313 24.1087 20.0002C24.1087 22.2692 22.2698 24.108 20.0009 24.108C17.7319 24.108 15.8923 22.2692 15.8923 20.0002Z" fill="white"/>
<path fill-rule="evenodd" clip-rule="evenodd" d="M20 17C21.6568 17 23 18.3431 23 20C23 21.6568 21.6568 23 20 23C18.3431 23 17 21.6568 17 20C17 18.3431 18.3431 17 20 17V17Z" fill="white"/>
</svg>
