<svg width="40" height="40" viewBox="0 0 40 40" fill="none" xmlns="http://www.w3.org/2000/svg">
<path fill-rule="evenodd" clip-rule="evenodd" d="M15 17H12V28H15V17Z" fill="white"/>
<path fill-rule="evenodd" clip-rule="evenodd" d="M15 14.4995C14.9827 13.6483 14.4209 13 13.5087 13C12.5964 13 12 13.6483 12 14.4995C12 15.333 12.5788 16 13.474 16H13.4911C14.4209 16 15 15.333 15 14.4995Z" fill="white"/>
<path fill-rule="evenodd" clip-rule="evenodd" d="M28 21.8375C28 18.5364 26.2224 17 23.8514 17C21.9383 17 21.0818 18.0431 20.6036 18.7749V17.2527H17C17.0475 18.2611 17 28 17 28H20.6036V21.9978C20.6036 21.6766 20.627 21.3562 20.7223 21.1262C20.9827 20.4845 21.5756 19.8201 22.5711 19.8201C23.8754 19.8201 24.3968 20.8056 24.3968 22.2499V27.9997H27.9999L28 21.8375Z" fill="white"/>
</svg>
