<svg width="40" height="40" viewBox="0 0 40 40" fill="none" xmlns="http://www.w3.org/2000/svg">
<path fill-rule="evenodd" clip-rule="evenodd" d="M19.2545 16.7242L19.2913 17.3298L18.6771 17.2556C16.4416 16.9714 14.4885 16.0075 12.8302 14.3886L12.0195 13.5853L11.8107 14.1785C11.3685 15.5008 11.651 16.8972 12.5723 17.8364C13.0636 18.3555 12.9531 18.4296 12.1055 18.1207C11.8107 18.0218 11.5528 17.9477 11.5282 17.9847C11.4422 18.0712 11.737 19.1958 11.9704 19.6407C12.2898 20.2586 12.9408 20.8641 13.6532 21.2225L14.2551 21.5067L13.5427 21.5191C12.8548 21.5191 12.8302 21.5315 12.9039 21.791C13.1496 22.5942 14.12 23.4469 15.2009 23.8177L15.9625 24.0772L15.2992 24.4727C14.3165 25.0411 13.1619 25.3624 12.0072 25.3871C11.4545 25.3995 11 25.4489 11 25.486C11 25.6096 12.4986 26.3016 13.3707 26.5735C15.9871 27.3768 19.0948 27.0307 21.4286 25.659C23.0869 24.6827 24.7452 22.7425 25.519 20.8641C25.9367 19.8631 26.3543 18.0342 26.3543 17.1567C26.3543 16.5883 26.3911 16.5141 27.079 15.8344C27.4844 15.439 27.8652 15.0065 27.9389 14.8829C28.0617 14.6481 28.0494 14.6481 27.423 14.8582C26.3789 15.2289 26.2315 15.1795 26.7474 14.6234C27.1282 14.2279 27.5826 13.5112 27.5826 13.3011C27.5826 13.264 27.3984 13.3258 27.1896 13.437C26.9685 13.5606 26.4771 13.746 26.1086 13.8572L25.4453 14.0673L24.8434 13.6594C24.5118 13.437 24.045 13.1898 23.7993 13.1157C23.1729 12.9427 22.2148 12.9674 21.6497 13.1651C20.1143 13.7212 19.1439 15.1548 19.2545 16.7242Z" fill="white"/>
</svg>
